<svg id="Слой_1" xmlns="http://www.w3.org/2000/svg" viewBox="0 0 711.9 326.6"><style>.st0{fill:#49659f}.st1{fill:#fff}</style><path class="st0" d="M336.3 0H373c.7.1 1.5.4 2.2.4 8.1.4 16.1.6 24.2 1.1 6.9.4 13.9 1 20.8 1.5 5.9.5 11.8 1 17.7 1.7 9.3 1.2 18.7 2.5 28 3.9 15.5 2.3 30.8 5.4 46 9 18.7 4.5 37.1 9.9 55.2 16.4 22.3 8.1 43.9 17.9 64.1 30.4 12.1 7.5 23.6 15.8 33.9 25.6 1.8 1.8 3.7 3.5 5.6 5.2l8.4-.6c4.7-.4 9.5-.9 14.2-1.3 6.2-.5 12.3-1.1 18.5-1.6V230c-5.2-.2-10.4-.4-15.5-.7-3-.1-5.9-.3-8.9-.5-3.9-.3-7.8-.6-11.7-.8-.8-.1-1.5 0-2.7 0-.4.5-.8 1.1-1.3 1.7-4.4 5-9.4 9.4-14.5 13.6-12.8 10.7-26.8 19.7-41.6 27.6-19.5 10.5-40 18.8-61 25.8-14.9 4.9-30 9.3-45.4 12.7-10.4 2.3-20.9 4.5-31.4 6.4-7.9 1.5-15.9 2.7-23.9 3.9-7.1 1-14.1 1.9-21.2 2.6-6.3.7-12.7 1.2-19 1.7-6 .5-12 1-18 1.4-6.8.4-13.6.5-20.4.7-.8 0-1.6.3-2.5.4h-36.7c-1-.2-2-.4-3-.4-6.9-.3-13.8-.3-20.6-.7-8-.5-15.9-1.2-23.9-1.9-5.8-.5-11.7-1-17.5-1.7-9.3-1.2-18.7-2.5-28-3.9-16.5-2.5-32.8-5.8-48.9-9.7-28-6.9-55.4-15.7-81.7-27.7-17.2-7.9-33.7-16.9-49.1-28-8.6-6.2-16.6-13-24.1-20.4-1.1-1.1-2.1-2.2-3.2-3.4h-2.8c-2.4.1-4.7.3-7.1.4-1.3.1-2.5.1-3.8.2-7.6.3-15.1.6-22.7.9C0 184.1 0 138 0 91.9c1.8.1 3.6.4 5.3.4l30.3 1.2c3.7 1.1 6.2-.9 8.6-3.3 7.5-7.4 15.9-13.8 24.7-19.7C82.8 61 97.7 53 113 46c13.8-6.4 28-11.7 42.5-16.5 15.4-5.1 31-9.5 46.9-13 9.6-2.1 19.3-4 29-5.8 7.9-1.5 15.9-2.7 23.9-3.9 7.1-1 14.1-1.9 21.2-2.6 6.3-.7 12.7-1.2 19-1.7 6-.5 12-1 18-1.3 6.8-.4 13.6-.5 20.4-.7.8-.1 1.6-.4 2.4-.5zM133.8 284.7c1 .5 1.4.7 1.8.8 4.9 1.8 9.7 3.7 14.6 5.4 15.4 5.4 31.1 9.8 47 13.7 17.5 4.2 35.2 7.7 53 10.3 10.2 1.5 20.4 2.6 30.6 3.7 9 1 18.1 1.7 27.1 2.4 6.5.5 13.1.8 19.6 1 7.7.3 15.5.4 23.2.5 6.5 0 12.9-.2 19.4-.3 5.1-.1 10.2-.2 15.3-.5 8.9-.5 17.8-1 26.7-1.6 6.5-.4 13-1 19.5-1.7 7.5-.8 15-1.8 22.5-2.9 9.9-1.5 19.8-3 29.7-4.8 15.3-2.8 30.4-6.4 45.4-10.5s29.8-8.9 44.3-14.5c.5-.2.9-.5 1.7-.9-25.1-14.7-51.1-26.8-78.2-36.1-.4.3-.6.4-.7.6-.5.7-1 1.4-1.5 2-10.9 15.2-24.1 28.2-39.4 38.9-27.1 18.9-57.3 29.1-90.1 31.3-12.6.8-25.3.4-37.9-1.5-12-1.8-23.7-4.7-35-8.8-20.9-7.6-39.7-18.6-56.2-33.5-9.5-8.5-17.9-17.9-25.1-28.4-.4-.6-.9-1.2-1.5-1.9-26.7 9.3-51.7 21.8-75.8 37.3zM210.9 77c.4-.3.6-.3.7-.5.4-.5.7-.9 1.1-1.4 11.1-15.3 24.4-28.3 39.9-39 15.4-10.7 32.2-18.6 50.2-23.9 12.8-3.8 26-6.2 39.3-6.9 14.3-.8 28.5-.2 42.7 2.3 15.7 2.8 30.7 7.4 45.1 14.2 15 7 28.7 16 41 27 8.8 7.8 16.7 16.5 23.6 26.1.5.7 1.1 1.4 1.6 2.1 15.2-3.8 69.5-30.9 74.3-37-.6-.2-1.1-.5-1.6-.7-16.8-6.4-33.8-11.5-51-15.8-17.7-4.5-35.6-8-53.7-10.9-12.6-2-25.2-3.6-37.9-4.9-8.2-.8-16.4-1.5-24.6-2-6.6-.5-13.2-.8-19.9-1-8.1-.3-16.1-.4-24.2-.5-5.9 0-11.9.2-17.8.3-7.6.2-15.3.3-22.9.7-6.4.3-12.7.9-19.1 1.4-4.9.4-9.8.7-14.7 1.2-8.1.9-16.2 1.8-24.3 2.9-10.2 1.5-20.3 3-30.4 4.8-13.7 2.5-27.3 5.5-40.8 9-17.5 4.6-34.8 10-51.7 16.5-.6.2-1.2.6-2.2 1 24.9 14.3 50.5 25.9 77.3 35zm141.6 148.2c-.9-.1-1.5-.2-2.1-.1l-27.8.6h-.5c-5.8.5-11.5.9-17.3 1.4-5.6.5-11.2.9-16.7 1.7-9.9 1.5-19.8 3.1-29.6 5-15.1 2.9-29.9 7.1-44.5 12-.7.2-1.3.6-2.2 1 19.2 27.6 44.3 47.3 75 60.1 18.8 7.8 55.6 14.9 65.7 12.4v-94.1zm2.3 94.3h3c5-.3 10-.6 15-1 7.9-.6 15.6-2.1 23.3-4 16.8-4.1 32.7-10.5 47.5-19.4 19.8-11.8 36.6-27 50-45.9.3-.4.5-1 .9-1.6-22.6-7.7-45.5-13.1-68.9-17-22.4-3.7-64.4-6.6-70.8-5.2v94.1zM493.9 77.8c-1-1.4-1.8-2.6-2.6-3.6-7.9-10.6-17.1-20.1-27.3-28.4-18.7-15.3-39.8-26-63-32.4-7.9-2.2-15.8-3.9-24-4.8-4.4-.5-8.8-1-13.2-1.3-2.5-.2-4.9-.1-7.4-.1-.6 0-1.1.2-1.7.3-.1.6-.1 1-.1 1.4v89.3c0 .3.1.5.1.8 0 .1.1.2.1.2l.4.4c47.2-.1 93.5-5.9 138.7-21.8zm-280.3-.2c.8.4 1.4.8 2 .9 8.3 2.4 16.6 5 25 7.2 14.6 3.8 29.5 6.7 44.5 8.9 10.7 1.5 21.4 2.8 32.2 3.5 3 .2 5.9.4 8.9.6 8.1.3 16.3.6 24.5.9.6 0 1.3-.2 2.1-.3V10.2c0-.9-.1-1.8-.2-2.7-10.1-.9-32.9 1.9-49.8 7-24.3 7.4-46.1 19.2-65 36.2-9.1 7.8-17.3 16.7-24.2 26.9zm454.2 150.1c-5.4-.4-10.2-.8-15.1-1.1-3.6-.2-7.1-.4-10.7-.6-2.6-.2-5.3-.3-7.9-.5-6.2-.5-12.4-.9-18.5-1.4l-9.9-.6c-5.9-.4-11.8-1-17.8-1.4-6-.4-12-.8-18-1.1l-8.1-.6c-6.1-.4-12.2-.9-18.3-1.4-3.8-.3-7.6-.4-11.4-.6-3.6-.2-7.3-.6-10.9-.8-2.6-.1-5.2 0-7.9 0-4 10.2-9.1 19.8-15.1 29.1 14 5 27.6 10.4 40.8 16.6 13.3 6.2 26.3 13.1 39.1 20.6 1.7-.7 3.4-1.4 5.2-2.1 14.2-5.8 27.9-12.5 41.1-20.3 14.2-8.4 27.5-17.9 39.4-29.3 1.1-1.3 2.6-2.6 4-4.5zM513 108.6h1.4c5.7-.4 11.3-.9 17-1.3l20.1-1.5c7.3-.6 14.6-1.1 21.8-1.7 2.5-.2 4.9-.4 7.4-.6 4.9-.4 9.8-.9 14.7-1.3 4.7-.4 9.5-.8 14.2-1.2 4.8-.4 9.6-.9 14.4-1.4 4.6-.4 9.3-.7 14-1.2 7.4-.6 14.9-1.3 22.3-2 1.4-.1 2.8-.4 4.5-.6-.4-.5-.7-.9-1-1.1-7.8-7.3-16.1-14.1-25-20.1-19.7-13.5-41.1-23.9-63.2-32.7-1.5-.6-2.7-.5-4 .4-2.8 1.8-5.6 3.6-8.4 5.3-13.1 7.9-26.6 15.1-40.6 21.2-7.2 3.1-14.6 6-21.9 9-1 .4-2 .8-3.2 1.3 6.2 9.4 11.3 19.1 15.5 29.5zM194.8 219.3h-1.3c-5.9.4-11.9.8-17.8 1.1-4.2.2-8.5.4-12.7.7-3 .2-5.9.4-8.9.6-6.4.4-12.7.9-19 1.3-4.2.3-8.3.4-12.5.6-3 .2-5.9.4-8.9.6-7 .5-14.1.9-21.1 1.4l-11.7.6c-7 .4-14.1.9-21.1 1.4-4.9.3-9.8.4-14.8.7-.8 0-1.7-.1-2.6.8 25.4 25.2 56.1 41.5 88.4 54.7 8.6-5 16.8-10.1 25.2-14.6 8.4-4.5 16.9-8.8 25.5-12.7 8.7-4 17.6-7.4 26.7-11.2-5.2-8.4-9.6-17-13.4-26zM131 43c-.9.3-1.6.6-2.3.8-10.4 4.3-20.6 8.9-30.5 14.1-14.1 7.4-27.6 15.8-40.1 25.7-3.9 3.1-7.8 6.3-11.5 10.2 1.5.2 2.7.4 4 .5 1.9.1 3.7.1 5.6.2 7 .4 14.1.9 21.1 1.4 6.8.4 13.6.8 20.3 1.2 2.7.2 5.4.3 8.1.5 5.9.4 11.8.9 17.8 1.4l18.6 1.2c2.6.2 5.2.4 7.9.6 5.9.5 11.8.9 17.8 1.4l9.9.6c5.6.4 11.2.9 16.8 1.3.6 0 1.2-.1 1.9-.1 3.8-8.7 8.3-16.9 13.7-25-27.9-9.5-54.1-21.6-79.1-36zM58.2 216.1c.1 1.1.1 2 .2 3.1 9.6-.5 19-.9 28.3-1.4.4-1.6.4-1.6 0-2.9-.4 0-.8-.1-1.2-.1-2.3.1-3.9-1.2-4.8-3.1-.5-1.1-.8-2.4-1-3.7-.2-1.9-.1-3.9-.1-5.9v-78.3c0-2.9 0-5.8.2-8.7.1-1.5.5-3 1.1-4.4.7-1.7 2.1-2.7 4-2.6.7 0 1.5-.1 2.3-.2v-2.7c-.5-.2-.9-.5-1.3-.5-6.5-.4-13.1-.8-19.6-1.2-.5 0-1 .1-1.7.2-4.9 25-9.7 49.9-14.6 74.8h-.4c-5-25.5-10.1-51.1-15.2-76.8-3.8-.2-7.5-.6-11.3-.7-3.7 0-7.4-.6-11.1-.4v3.1c.5.1.7.2.9.2 3.7 0 5.2 2.5 5.8 5.1.4 1.7.6 3.5.6 5.3 0 30.1.1 60.2 0 90.3 0 2.3-.5 4.6-1 6.8-.7 3.2-2.5 5.5-6 6.2-.1 0-.3.2-.5.4v2.8c3.2.1 6.2.2 9.3-.2 3.1-.4 6.2.1 9.3-.5v-3c-.5-.1-.8-.3-1.1-.3-2.6-.3-4.3-1.7-5.1-4.1-.6-1.8-1.2-3.6-1.3-5.4-.3-4.1-.4-8.1-.4-12.2v-80.2c.5.8.7 1.6.9 2.4 1.5 7.3 2.9 14.7 4.4 22l12 60c1.2 6.1 2.4 12.2 3.7 18.2.2.8.1 1.7 1.4 2.5 1.5-7.1 2.8-13.9 4.1-20.8 1.4-6.8 2.7-13.7 4-20.5 1.4-6.9 2.7-13.8 4.1-20.7 1.4-6.8 2.7-13.7 4.1-20.5 1.4-6.9 2.8-13.7 4.2-20.6h.4v80.3c0 3.3 0 6.6-.1 9.9-.1 1.5-.4 3-.8 4.5-.8 2.5-2.4 4.1-5.2 4.1-.3.2-.7.3-1.5.4zm557.5-109.8c-.7 0-1.1-.1-1.5-.1-8.1.7-16.2 1.3-24.4 2-.7.1-1.3.2-2 .4-.2.1-.4.3-.8.5.1.6.1 1.3.2 2 .6.1.9.1 1.2.2 3.9.3 5.1 1.1 5.6 4.9.5 4.2.8 8.5.8 12.7.1 21.6.1 43.2 0 64.8 0 3.3-.2 6.6-.4 9.9-.1 1-.3 2-.6 3-.4 1.6-1.5 2.7-3.1 3.1-1.1.3-2.3.5-3.7.8.1.8.1 1.7.2 2.5 3.7.4 26.6 2.6 28.5 2v-2.4c-.8-.2-1.4-.4-2.1-.6-2.8-.6-4.6-2.2-4.9-5.1-.1-1-.4-2-.4-3 0-12.9-.1-25.8-.1-38.8 0-.5.2-1.1.3-1.7 1.9.1 3 1.1 3.6 2.7.8 2.3 1.6 4.7 2.2 7 3.6 13.5 7.2 26.9 10.7 40.4.2.9.6 1.7.9 2.7 6.1.3 12.1 1.2 18.2 1.2v-3c-3.4-.7-4.9-3.1-6.1-5.8-.5-1.3-.9-2.6-1.3-3.9-3.3-11.8-6.4-23.6-9.8-35.4-.6-2.3-1.5-4.5-2.6-6.6-.7-1.4-2-2.5-3.1-3.7-.4-.4-.9-.7-1.1-.9.9-3 1.9-5.8 2.5-8.7.9-4.6 1.5-9.2 2.3-13.8.8-5 1.6-10.1 2.6-15.1.3-1.6.9-3.1 1.5-4.6.4-1 1.2-1.9 2.8-1.4.2.6.5 1.4.6 2.2.2 1.6.2 3.2.5 4.8.3 1.9.5 3.9 1.2 5.7 1.3 3.5 4.8 3.8 6.9.7.7-1 1.3-2.2 1.6-3.4 1-3.9 1-7.9.1-11.9-.4-2.1-1.3-4.3-2.3-6.1-1.8-3.2-5-4-8.4-2.5-1.5.7-2.8 1.7-3.6 3.1-1.1 2-2.3 4-3 6.1-2.1 5.7-2.8 11.7-3.7 17.7-.7 4.7-1.3 9.4-2.1 14.1-.5 2.8-1.1 5.5-2.7 7.9-.5.8-1.3 1.7-2.1 2.1-2.1.9-4.4.8-6.7.5-.1-.7-.2-1.1-.2-1.5 0-11.9 0-23.8.1-35.7 0-1.7.4-3.4.9-5 .5-1.9 1.9-3.2 3.9-3.7.8-.2 1.6-.4 2.6-.7.3-.8.3-1.6.3-2.6zM91.6 161.1c.2 4.1.4 8.1.7 12.2.5 8.4 2.2 16.5 5.1 24.3 1.8 4.8 4 9.4 7.3 13.4 4.2 5.1 9.6 7.8 16.3 7.4 5.1-.3 9.5-2.4 13.2-5.9 4.1-4 6.9-8.8 9.1-14 4.5-10.5 6.6-21.6 6.7-33 .1-5.1-.2-10.2-.5-15.3-.5-7.5-2.1-14.8-4.8-21.8-1.8-4.7-3.9-9.2-7.1-13.2-3.5-4.4-7.7-7.6-13.3-8.9-6.6-1.5-12.5-.4-17.5 4.3-1.9 1.8-3.5 3.9-4.9 6.1-3.7 5.8-6 12.2-7.5 18.8-2 8.4-2.8 16.9-2.8 25.6zm415.7-39.9v68.1c0 2.6 0 5.3-.1 7.9-.1 1.3-.3 2.7-.6 4-.4 1.7-1.7 2.7-3.5 2.9-.8.1-1.7 0-2.5.1-.2 0-.4.2-.7.3 0 .3-.1.7-.1 1 0 .3.2.6.3 1.1 9.5.8 18.9 1.4 28.5 2v-2.3c-.3-.2-.5-.3-.6-.4-.4-.1-.8-.2-1.2-.2-3.3-.5-4.6-1.5-5.1-4.7-.5-3-.8-6.1-.8-9.1-.1-20.4-.1-40.8 0-61.2 0-3.4.5-6.8 1-10.1.3-2.4 2-3.6 4.3-4.1.8-.2 1.6-.3 2.5-.4v-2.4c-.4-.1-.6-.2-.9-.2-6.6.5-13.2 1-19.8 1.4-2.5.2-4.9.4-7.4.6-6.1.5-12.2.9-18.3 1.4-3.9.3-7.8.4-11.7.7-.9.1-1.8.3-2.8.5-.1 0-.3.2-.6.4.1.5.1 1.1.2 1.7.4.1.5.2.7.2 4.9-.1 6.2 1 6.6 5.9v.5c0 2 .1 4.1.1 6.1v56.6c0 2.1 0 4.3-.1 6.4-.1 1.3-.3 2.5-.6 3.8-.3 1.4-1.2 2.3-2.6 2.6-1.2.2-2.3.3-3.5.5-.2 0-.4.2-.8.4.1.5.1 1.1.2 1.7 1.6.1 3 .3 4.4.4 5.4.3 10.8.7 16.3.9 2.4.1 4.8.1 7.1.1.2 0 .4-.2.7-.4 0-.5-.1-1.1-.1-1.6-.3-.2-.4-.3-.6-.3l-1.8-.3c-2.6-.3-4-1.5-4.5-4.1-.4-1.8-.6-3.7-.6-5.6 0-23 0-46.1-.1-69.1 0-.7.1-1.5.2-2.4 6.3-.7 12.4-.9 18.9-1.3zm-43.5 81.1c-.8-.1-1.2-.1-1.6-.2-3.4-.4-5-2-5.5-5.3-.2-1.2-.3-2.4-.3-3.5v-63.5c0-1.5.2-3.1.5-4.5.4-2.3 1.8-3.8 4.1-4.3.7-.2 1.5-.3 2.2-.4.2 0 .3-.2.7-.4-.1-.6-.1-1.2-.2-2.1-7.5.6-14.8.7-22.1 1.3-5 18.3-9.7 36.4-14.9 54.4-2.7-8.8-5.2-17.6-7.8-26.4-2.6-8.9-4.9-17.8-7.5-26.5-3.5-.5-20.7-.2-22.5.4.1.6.1 1.2.2 1.8.4.1.7.2.9.2h1c2.9.3 4.4 1.6 5 4.5.3 1.2.4 2.5.4 3.8v58.9c0 2.1-.3 4.1-1 6-.8 2-2.2 3.4-4.4 3.9-.7.2-1.4.4-2.2.7 0 .6.1 1.1.1 1.5 2.5.5 16.4.5 18.5 0V201c-.5-.1-.9-.3-1.3-.3-3.5-.7-5.4-2.9-6.1-6.3-.3-1.2-.4-2.5-.4-3.8v-60.1c.6.8.9 1.5 1.1 2.3 4.5 15.8 9.1 31.7 13.6 47.5 2 6.9 4 13.9 6 20.8.2.8.3 1.7 1.6 2.3 7.1-24.9 13.8-49.8 21-74.6v65.7c-.1 4.1-2.1 7.2-6.5 6.7-.3 0-.6.2-1.1.3.1.7.1 1.3.2 2.1 9.5.3 18.8.8 28.2 1.1.1-1 .1-1.6.1-2.4zm-109-89.7c.7.1 1.2.2 1.6.2 4.4.1 8.8.4 13.2.4 15 0 29.9-.1 44.9-.3 12.8-.2 25.7-.7 38.5-1 5.9-.2 11.7-.4 17.6-.6 3.3-.1 6.6-.3 9.9-.5 8.2-.5 16.4-1 24.7-1.5 1.7-.1 3.3-.4 5.4-.6-4.1-10.5-9.2-20-15.4-28.9-1 .3-1.7.6-2.4.8-5.3 1.7-10.7 3.5-16 5.1-22.2 6.5-44.9 10.8-67.9 13.3-8.6.9-17.2 1.6-25.9 2-8.3.4-16.6.4-25 .6h-1c-.7.1-1.3.1-2.1.2-.1 3.6-.1 7-.1 10.8zm156.1 104.6c-.7-.2-1-.3-1.3-.3-8.5-.5-17-1-25.4-1.5-6.9-.4-13.7-.7-20.6-1-8.6-.4-17.2-.7-25.7-1-5.4-.2-10.7-.4-16.1-.5-8.3-.2-16.7-.4-25-.5-13.1-.1-26.2 0-39.3-.1-.8 0-1.7.1-2.4.2-.5 2.5-.5 8.2.1 10.5 23.8.3 47.6 2.1 71.2 5.8 23.6 3.8 46.8 9.4 69.6 17.2 5.9-9.1 10.9-18.5 14.9-28.8zm-186.7-95.3c.7.1 1.1.1 1.5.2 4.8.6 6 1.6 6 6.5.1 21.9 0 43.9 0 65.8 0 1-.2 2-.4 3-.7 3-1.9 3.9-4.9 4.2-.7.1-1.5.2-2.4.3.1.9.2 1.5.3 2.3 9.8-.6 19.4-.4 29.3-1.3-.2-.8-.3-1.4-.4-1.8-1.6-.2-3-.4-4.5-.7-1.1-.2-2.1-.9-2.4-2.1-1-3.5-1.6-7-.1-10.5 5.5-13.1 11-26.2 16.5-39.2.4-1 .8-1.9 1.2-2.9.4.5.4.8.4 1.1 0 15.4 0 30.8-.1 46.2 0 1.1-.2 2.2-.4 3.3-.6 2.9-1.8 3.9-4.7 4.1-.8.1-1.6.2-2.6.3.1.9.2 1.5.3 2.3 9.8-.2 19.3-.4 29-.6v-1.9c-1.3-.2-2.5-.4-3.6-.6-2.1-.3-3.4-1.5-3.8-3.6-.2-.8-.4-1.7-.4-2.5-.2-4.3-.4-8.7-.4-13v-42.3c0-3.2.2-6.5.4-9.7 0-.7.2-1.3.4-2 .7-2.7 1.9-3.7 4.6-4 .9-.1 1.8-.1 2.9-.1-.1-.9-.1-1.5-.2-2.2-.8-.1-1.5-.2-2.2-.2-8.2 0-16.5 0-24.7-.1-.5 0-1 0-1.5.1-.2 0-.4.2-.8.4.1.6.2 1.2.2 1.9 1.1.1 2 .1 3 .2 1.6.2 3.1.7 3.6 2.4 1.1 3.6 1.6 7.3.1 11-5.7 13.6-11.5 27.2-17.3 40.9-.1.3-.4.6-.7 1.1-.1-.6-.2-.8-.2-1.1 0-15.6 0-31.3.1-46.9 0-1.2.2-2.4.5-3.5.7-2.8 1.8-3.7 4.6-3.9.9-.1 1.8-.1 2.9-.2-.1-.9-.1-1.5-.2-2.2-9.8-.3-19.4-.5-29-.8-.1.4-.3.8-.3 1.1.2.3.3.7.4 1.2zm-113.5 39.6c-.2 6.4.3 12.6 1.6 18.8 1.7 8 4.4 15.5 9.5 22 6.7 8.6 17.9 10.6 27.5 5.6 5.1-2.7 8.7-7 11.5-12 5.3-9.4 7.6-19.6 8.1-30.3.2-4.2-.1-8.5-.4-12.7-.7-9-3.2-17.5-7.9-25.3-5.3-8.7-12.7-13.7-23.2-13.5-5.3.1-9.8 2-13.5 5.7-4.3 4.2-7 9.3-9.1 14.9-3.2 8.7-4.4 17.7-4.1 26.8zm-12.1-57.3c1.7.2 2.9.3 4.2.4 3.6.2 7.1.4 10.7.7 6.1.4 12.2.9 18.3 1.4 3.8.3 7.6.4 11.5.6 3.1.2 6.1.4 9.2.6 6.7.4 13.4.9 20.1 1.3 4.5.3 9 .4 13.5.6 3.5.2 7 .3 10.4.5 8.4.4 16.8 1 25.2 1.3 7.6.3 15.3.5 22.9.7.8 0 1.7.2 2.5.2h5.6c.1-3.7.1-7.2 0-11-48.1-.2-94.9-6.9-140.4-22-5.4 7.9-10 15.8-13.7 24.7zm153.9 108.7c-1.9-.9-3.6-.2-5.3-.2-14.4.3-28.7.7-43.1 1.1-8.3.2-16.6.6-25 1-7.9.3-15.8.7-23.7 1.1-5.2.2-10.4.4-15.5.6-3.2.1-6.4.3-9.7.5-8.5.5-17 1-25.4 1.5-2.5.2-5 .4-7.8.6 3.6 9.1 8.1 17.4 13.4 25.5 1-.3 1.9-.6 2.8-.9 9-2.7 17.9-5.5 26.9-7.9 18.3-4.9 37-8 55.8-10.1 8.6-.9 17.2-1.6 25.9-2.1 7.7-.4 15.5-.4 23.2-.6h5.6c.6 0 1.1-.2 1.8-.3.1-3.3.1-6.5.1-9.8zM552.9 157v-39.6c1.1-.2 2-.5 3-.5 2.2-.1 4.4 0 6.6-.2 3.1-.2 5.7 1 7.6 3.4 1.2 1.5 2.3 3.2 3 5 .9 2.4 1.4 5.1 2 7.6.5 2.3.8 4.6 1.2 7 .6-.1.9-.2 1.2-.2.5-2.9.4-28.2-.1-30.2-4.3.3-8.6.6-12.9 1-5.2.4-10.5.9-15.7 1.4-4.8.4-9.7.7-14.5 1.2-.8.1-1.6.4-2.4.6v1.7c0 .1.2.3.3.5.4 0 .9.1 1.4.1 3.2.1 4.7 1.2 5.3 4.4.3 1.6.4 3.2.4 4.8v66.8c0 2.1.1 4.3-.1 6.4-.1 1.8-.5 3.5-1 5.2-.5 1.7-1.9 2.6-3.7 2.7-.7.1-1.4 0-2 .1-.2 0-.5.2-.7.3v2.1c1 .2 1.9.4 2.8.5 2.3.2 4.6.4 6.9.5 7.8.6 15.6 1.1 23.4 1.7 2.9.2 5.7.6 8.6.8 1.8.1 3.7.5 5.7-.2.8-10.3 1.6-20.7 2.4-31 0-.4-.2-.8-.2-1.2-1.4-.3-1.5.7-1.6 1.5-.4 2-.7 4-1.2 6-1.1 4.2-2.4 8.3-4.9 12-2.3 3.3-5.2 5.6-9.4 6-2.1.2-4.2 0-6.3-.1-2.9-.2-4.4-1.6-4.8-4.6-.3-1.8-.4-3.7-.4-5.6v-29.3c0-.8.1-1.7.1-2.5 3.8-.1 5.7.9 7.3 3.8l.9 1.8c1.7 4.1 2.4 8.5 2.8 12.9.1 1.5.2 3 .8 4.5.4 0 .7-.1 1-.1.5-2.8.4-50.6-.1-52.6-.3.1-.6.2-1.1.3-.2 1.3-.3 2.7-.5 4-.5 3.5-1 7.1-1.7 10.6-.4 2.2-1.2 4.3-2.6 6-1.7 2.2-3.8 3.3-6.8 2.7zm141.2-50.4c-1.7-.1-2.7-1.3-4-2.1-2.1-1.3-4.1-2.8-6.2-3.9-4.2-2.2-8.5-2-12.8.1-1.5.8-2.9 1.7-4.3 2.8-4.4 3.5-7.6 8-10.1 13-6 12-8.8 24.8-9.7 38-.3 4.2-.4 8.5-.2 12.7.3 7.2 1.2 14.4 2.8 21.4 1.4 6.1 3.2 12 6.2 17.5 3 5.6 6.8 10.6 12.5 13.8 6.6 3.6 14.4 4 20.8-2 2.7-2.5 4.6-5.7 6.4-8.9 1.9-3.3 3.2-6.7 2.7-10.6-.1-.8 0-1.7 0-2.5 0-.5-.1-1-.3-2.1-.7 1.5-1.1 2.4-1.5 3.4-.9 2-1.8 4.1-2.9 6-1.4 2.3-2.8 4.7-4.6 6.7-3.6 4.3-8.6 5.5-13.3 3.5-2.2-.9-3.8-2.5-5.2-4.4-2.8-3.9-4.3-8.5-5.4-13.1-2.6-10.9-3.1-22-3.5-33.1-.2-6.8.2-13.6.9-20.4.6-6.7 1.6-13.3 3.7-19.7 1.5-4.5 3.5-8.7 6.8-12.2 4.1-4.4 9.6-5 14.1-.5 2.4 2.5 4.2 5.4 5.5 8.5 2.6 6.1 3.7 12.5 4.6 19 .1.7.3 1.4.6 2.5.7-.6 1.2-.8 1.3-1.2.2-.4.1-1 .1-1.5V100c0-.7-.1-1.3-.2-2.1-.6 0-1 .1-1.4.1-.3 1.6-.5 3.1-.8 4.6-.4 1.7-.9 3.2-2.6 4zm-392.2 96.2c-.9-.1-1.5-.1-2-.2-2.9-.2-4.3-1.4-4.9-4.2-.3-1.2-.4-2.5-.4-3.8v-26.3c0-.7.1-1.3.2-2.3 2.1-.1 4.1-.1 6.1-.2 8.4-.4 14.4-4.4 17.4-12.3 2.8-7.3 2.8-14.7.1-21.9-2.4-6.6-7.2-10.8-14.2-12.2-2.6-.5-5.4-.8-8.1-1-5.3-.3-10.5-.4-15.8-.7-1.8-.1-3.6-.2-5.3-.3-.2 0-.4.2-.8.4.1.6.1 1.3.2 1.9.9.2 1.6.4 2.4.6 2.9.7 4.2 2.1 4.6 5 .2 1.5.4 3 .4 4.6v64c0 1.6-.2 3.2-.4 4.8-.4 2.7-1.9 4.2-4.5 4.9-.8.2-1.6.4-2.6.7.1.8.2 1.5.2 2.2 2.6-.1 4.9-.2 7.1-.3 2.3-.1 4.6-.3 6.9-.4 2.3-.1 4.6-.1 6.9-.2 2.3-.1 4.5-.4 6.8-.6-.3-.9-.3-1.4-.3-2.2zm-145.4-93c-.6 2.8-.5 26 0 28 .3 0 .6-.1 1-.1.2-1.5.4-2.9.6-4.3.6-4.2 1.6-8.3 3.7-12.1 1-1.9 2.4-3.3 4.5-3.9 2.5-.7 5-.4 7.7-.1v77.6c0 2.2.1 4.4-.1 6.6-.1 1.7-.5 3.4-.9 5-.6 2-2 3.3-4.1 3.7l-1.8.3-.8.4c0 .7.1 1.4.1 2.1 5.2.2 25.8-1.2 28.5-2-.1-.7-.1-1.3-.2-2.1-.7-.1-1.1-.1-1.5-.2-3.4-.3-5.1-1.9-5.5-5.2-.2-1.3-.4-2.7-.4-4.1v-79.3c0-.6.1-1.3.3-2.2 1.8.2 3.5.4 5.2.5 2.3.1 4 1.3 5.4 3 1.9 2.3 3.1 5.1 3.8 8 .7 2.8 1.1 5.7 1.7 8.5.2.8.1 1.8 1.5 1.8.2-.5.4-1.1.5-1.6.5-5.7.1-22.9-.6-24.9-16.2-1.2-32.4-2.3-48.6-3.4z"/><path class="st1" d="M58.2 216.1c.8-.1 1.2-.3 1.6-.3 2.8 0 4.4-1.6 5.2-4.1.4-1.4.7-3 .8-4.5.1-3.3.1-6.6.1-9.9V117h-.4c-1.4 6.9-2.8 13.7-4.2 20.6-1.4 6.8-2.7 13.7-4.1 20.5-1.4 6.9-2.7 13.8-4.1 20.7-1.4 6.8-2.7 13.7-4 20.5-1.4 6.8-2.6 13.7-4.1 20.8-1.4-.8-1.3-1.8-1.4-2.5-1.3-6.1-2.5-12.1-3.7-18.2l-12-60c-1.5-7.3-2.9-14.7-4.4-22-.2-.8-.4-1.6-.9-2.4v80.2c0 4.1.1 8.2.4 12.2.1 1.8.7 3.7 1.3 5.4.8 2.4 2.5 3.8 5.1 4.1.3 0 .6.2 1.1.3v3c-3.1.6-6.2.1-9.3.5-3 .4-6.1.3-9.3.2v-2.8c.2-.2.3-.3.5-.4 3.4-.7 5.3-2.9 6-6.2.5-2.2 1-4.5 1-6.8.1-30.1 0-60.2 0-90.3 0-1.8-.2-3.6-.6-5.3-.6-2.6-2.1-5.1-5.8-5.1-.2 0-.5-.1-.9-.2v-3.1c3.7-.2 7.4.4 11.1.4 3.7 0 7.4.4 11.3.7 5.1 25.7 10.1 51.2 15.2 76.8h.4c4.9-24.9 9.7-49.8 14.6-74.8.7-.1 1.2-.2 1.7-.2 6.5.4 13.1.8 19.6 1.2.4 0 .8.3 1.3.5v2.7c-.8.1-1.6.2-2.3.2-2-.1-3.3.9-4 2.6-.6 1.4-1 2.9-1.1 4.4-.2 2.9-.2 5.8-.2 8.7v78.3c0 2 0 3.9.1 5.9.1 1.2.4 2.5 1 3.7.9 2 2.5 3.2 4.8 3.1.4 0 .8.1 1.2.1.4 1.3.4 1.3 0 2.9-9.3.5-18.7.9-28.3 1.4-.2-1.2-.2-2-.3-3.2zm557.5-109.8v2.7c-1 .3-1.8.5-2.6.7-2 .5-3.3 1.7-3.9 3.7-.4 1.6-.9 3.3-.9 5-.1 11.9-.1 23.8-.1 35.7 0 .4.1.8.2 1.5 2.3.3 4.6.4 6.7-.5.9-.4 1.6-1.3 2.1-2.1 1.5-2.4 2.2-5.2 2.7-7.9.8-4.7 1.4-9.4 2.1-14.1.9-6 1.6-12 3.7-17.7.8-2.1 1.9-4.2 3-6.1.8-1.4 2.1-2.4 3.6-3.1 3.3-1.5 6.6-.7 8.4 2.5 1.1 1.9 1.9 4 2.3 6.1.8 3.9.9 7.9-.1 11.9-.3 1.2-.9 2.4-1.6 3.4-2.1 3.1-5.6 2.8-6.9-.7-.7-1.8-.9-3.8-1.2-5.7-.3-1.6-.3-3.2-.5-4.8-.1-.8-.5-1.6-.6-2.2-1.7-.6-2.4.3-2.8 1.4-.6 1.5-1.2 3-1.5 4.6-.9 5-1.8 10-2.6 15.1-.8 4.6-1.4 9.2-2.3 13.8-.6 2.9-1.6 5.7-2.5 8.7.3.2.8.5 1.1.9 1.1 1.2 2.3 2.3 3.1 3.7 1.1 2.1 2 4.3 2.6 6.6 3.3 11.8 6.5 23.6 9.8 35.4.4 1.3.8 2.6 1.3 3.9 1.1 2.8 2.7 5.2 6.1 5.8v3c-6.1 0-12.1-.9-18.2-1.2-.3-1-.6-1.8-.9-2.7-3.6-13.5-7.1-26.9-10.7-40.4-.6-2.4-1.5-4.7-2.2-7-.5-1.6-1.6-2.5-3.6-2.7-.1.6-.3 1.1-.3 1.7 0 12.9 0 25.8.1 38.8 0 1 .3 2 .4 3 .4 2.9 2.1 4.5 4.9 5.1.7.1 1.3.4 2.1.6v2.4c-1.9.7-24.8-1.5-28.5-2-.1-.8-.1-1.6-.2-2.5 1.4-.3 2.6-.5 3.7-.8 1.6-.4 2.6-1.5 3.1-3.1.3-1 .5-2 .6-3 .2-3.3.4-6.6.4-9.9 0-21.6.1-43.2 0-64.8 0-4.2-.3-8.5-.8-12.7-.5-3.8-1.7-4.6-5.6-4.9-.3 0-.7-.1-1.2-.2-.1-.7-.1-1.4-.2-2 .4-.3.6-.5.8-.5.7-.2 1.3-.3 2-.4 8.1-.7 16.2-1.4 24.4-2 .1-.1.5 0 1.2 0zM91.6 161.1c0-8.6.8-17.1 2.8-25.5 1.6-6.7 3.8-13.1 7.5-18.8 1.4-2.2 3-4.3 4.9-6.1 5-4.7 10.9-5.8 17.5-4.3 5.6 1.3 9.8 4.5 13.3 8.9 3.2 4 5.3 8.5 7.1 13.2 2.7 7 4.3 14.3 4.8 21.8.3 5.1.5 10.2.5 15.3-.1 11.4-2.3 22.5-6.7 33-2.2 5.2-4.9 10.1-9.1 14-3.7 3.5-8.1 5.6-13.2 5.9-6.7.4-12-2.4-16.3-7.4-3.3-4-5.5-8.5-7.3-13.4-2.9-7.9-4.6-16-5.1-24.3-.3-4.2-.5-8.3-.7-12.3zm43.6.7h.3c-.3-6.3-.5-12.6-.8-18.8-.3-6-1.1-12-2.7-17.8-1-3.8-2.3-7.5-4.8-10.6-3.9-4.8-9.4-4.6-13 .4-.2.3-.5.7-.7 1.1-.9 2-1.9 4-2.7 6-2.8 8-3.7 16.4-4 24.8-.4 14.5-.8 29.1 1.4 43.5.7 4.9 1.8 9.7 3.6 14.3.9 2.2 2 4.1 3.7 5.7 2.2 2 4.7 2.5 7.6 1.5 2.3-.8 3.8-2.5 5.1-4.5 1.9-3 3-6.3 3.9-9.7 2-7.6 2.7-15.4 3-23.2.2-4.2.1-8.5.1-12.7zm372.1-40.6c-6.5.3-12.6.6-18.8 1.2-.1 1-.2 1.7-.2 2.4 0 23 0 46.1.1 69.1 0 1.9.2 3.7.6 5.6.5 2.6 1.9 3.7 4.5 4.1.6.1 1.2.1 1.8.3.2 0 .3.2.6.3 0 .5.1 1 .1 1.6-.3.2-.5.4-.7.4-2.4 0-4.8 0-7.1-.1-5.4-.3-10.9-.6-16.3-.9-1.4-.1-2.9-.3-4.4-.4-.1-.7-.2-1.2-.2-1.7.4-.2.6-.4.8-.4 1.2-.2 2.4-.3 3.5-.5 1.4-.3 2.3-1.2 2.6-2.6.3-1.2.5-2.5.6-3.8.1-2.1.1-4.2.1-6.4v-56.6c0-2-.1-4.1-.1-6.1v-.5c-.4-4.9-1.7-6-6.6-5.9-.2 0-.3-.1-.7-.2-.1-.5-.1-1.1-.2-1.7.3-.2.4-.4.6-.4.9-.2 1.8-.4 2.8-.5 3.9-.2 7.8-.4 11.7-.7 6.1-.4 12.2-.9 18.3-1.4 2.5-.2 4.9-.4 7.4-.6 6.6-.5 13.2-1 19.8-1.4.2 0 .5.1.9.2v2.4c-.9.1-1.7.2-2.5.4-2.3.5-4 1.7-4.3 4.1-.4 3.4-.9 6.7-1 10.1-.1 20.4-.1 40.8 0 61.2 0 3 .3 6.1.8 9.1.5 3.2 1.8 4.2 5.1 4.7.4.1.8.1 1.2.2.2 0 .3.2.6.4v2.3c-9.5-.6-19-1.2-28.5-2-.1-.5-.3-.8-.3-1.1 0-.3.1-.7.1-1 .3-.1.5-.3.7-.3.8-.1 1.7 0 2.5-.1 1.8-.2 3-1.1 3.5-2.9.3-1.3.6-2.7.6-4 .1-2.6.1-5.3.1-7.9v-64.8c-.1-.9-.1-1.9-.1-3.2zm-43.5 81.1v2.4c-9.5-.3-18.8-.8-28.2-1.1-.1-.8-.2-1.4-.2-2.1.5-.1.8-.4 1.1-.3 4.4.5 6.4-2.6 6.5-6.7v-65.7c-7.2 24.8-13.9 49.6-21 74.6-1.3-.7-1.4-1.6-1.6-2.3-2-6.9-4-13.9-6-20.8-4.5-15.8-9.1-31.7-13.6-47.5-.2-.8-.5-1.6-1.1-2.3v60.1c0 1.3.1 2.6.4 3.8.7 3.4 2.6 5.7 6.1 6.3.4.1.8.2 1.3.3v1.6c-2.1.5-16 .5-18.5 0 0-.4-.1-.9-.1-1.5.8-.2 1.5-.5 2.2-.7 2.2-.5 3.6-1.9 4.4-3.9.8-1.9 1-3.9 1-6v-58.9c0-1.3-.1-2.6-.4-3.8-.6-2.9-2.1-4.2-5-4.5h-1c-.2 0-.5-.1-.9-.2-.1-.6-.1-1.2-.2-1.8 1.9-.6 19.1-.9 22.5-.4 2.6 8.7 5 17.6 7.5 26.5 2.5 8.8 5 17.6 7.8 26.4 5.2-18 9.9-36.1 14.9-54.4 7.3-.6 14.6-.7 22.1-1.3.1.9.1 1.6.2 2.1-.4.2-.5.3-.7.4-.7.2-1.5.3-2.2.4-2.3.5-3.7 2-4.1 4.3-.3 1.5-.5 3-.5 4.5v63.5c0 1.2.2 2.4.3 3.5.5 3.4 2.2 4.9 5.5 5.3.3 0 .7.1 1.5.2zm-139.6-80.4c-.1-.5-.2-.8-.2-1.1 0-.3.2-.6.3-1.1 9.7.3 19.2.5 29 .8.1.7.1 1.3.2 2.2-1.1.1-2 .2-2.9.2-2.8.2-3.9 1.1-4.6 3.9-.3 1.1-.5 2.3-.5 3.5 0 15.6-.1 31.3-.1 46.9 0 .2.1.5.2 1.1.3-.5.6-.8.7-1.1 5.8-13.6 11.5-27.2 17.3-40.9 1.5-3.7 1-7.3-.1-11-.5-1.7-2.1-2.1-3.6-2.4-.9-.1-1.8-.1-3-.2-.1-.7-.2-1.3-.2-1.9.4-.2.6-.4.8-.4.5-.1 1-.1 1.5-.1 8.2 0 16.5 0 24.7.1.7 0 1.3.1 2.2.2 0 .7.1 1.3.2 2.2-1.1.1-2 .1-2.9.1-2.7.2-3.9 1.3-4.6 4-.2.7-.3 1.3-.4 2-.2 3.2-.4 6.4-.4 9.7v42.3c0 4.3.2 8.7.4 13 0 .8.2 1.7.4 2.5.4 2.1 1.6 3.3 3.8 3.6 1.2.2 2.3.4 3.6.6v1.9l-29 .6c-.1-.8-.2-1.4-.3-2.3 1-.1 1.8-.2 2.6-.3 2.9-.3 4.1-1.3 4.7-4.1.2-1.1.4-2.2.4-3.3 0-15.4.1-30.8.1-46.2 0-.3-.1-.7-.4-1.1-.4.9-.8 1.9-1.2 2.9-5.5 13.1-11.1 26.1-16.5 39.2-1.4 3.5-.9 7 .1 10.5.3 1.1 1.3 1.8 2.4 2.1 1.4.3 2.8.4 4.5.7.1.5.2 1 .4 1.8-9.8.9-19.5.6-29.3 1.3-.1-.9-.2-1.5-.3-2.3.9-.1 1.6-.2 2.4-.3 3-.3 4.2-1.3 4.9-4.2.2-1 .4-2 .4-3v-65.8c0-4.8-1.2-5.9-6-6.5-.6-.2-1-.3-1.7-.3zm-113.5 39.6c-.2-9.1.9-18.1 4.1-26.7 2-5.6 4.8-10.7 9.1-14.9 3.7-3.7 8.2-5.6 13.5-5.7 10.5-.2 17.9 4.8 23.2 13.5 4.7 7.8 7.2 16.3 7.9 25.3.3 4.2.6 8.5.4 12.7-.4 10.7-2.7 20.9-8.1 30.3-2.8 5-6.4 9.2-11.5 12-9.6 5.1-20.8 3.1-27.5-5.6-5.1-6.5-7.8-14.1-9.5-22-1.3-6.3-1.8-12.5-1.6-18.9zm14.9.5h-.3c.3 5.6.5 11.2.8 16.8.3 4.7 1 9.3 2.3 13.8.9 3.4 2.1 6.6 4.4 9.4 1.6 2 3.7 3.1 6.4 3.2 3.6.1 6.2-1.6 8.2-4.3 1.9-2.6 2.9-5.5 3.8-8.6 2.1-7.2 2.8-14.7 3-22.1.1-7.6-.2-15.3-.4-22.9-.1-5.5-1-11-2.6-16.3-1.1-3.4-2.5-6.6-5-9.4-3.5-3.8-10-4.3-13.6 1.1-1.3 2-2.4 4.1-3.2 6.3-2.6 6.9-3.3 14.2-3.6 21.5-.3 3.9-.2 7.7-.2 11.5zm327.3-5c3 .5 5.1-.6 6.8-2.6 1.4-1.8 2.2-3.9 2.6-6 .7-3.5 1.1-7 1.7-10.6.2-1.3.4-2.7.5-4 .5-.1.8-.2 1.1-.3.5 1.9.6 49.8.1 52.6-.3 0-.6.1-1 .1-.6-1.5-.7-3-.8-4.5-.4-4.4-1.1-8.8-2.8-12.9-.3-.6-.5-1.3-.9-1.8-1.7-2.9-3.5-3.9-7.3-3.8 0 .8-.1 1.6-.1 2.5V195c0 1.9.2 3.7.4 5.6.4 3 1.9 4.4 4.8 4.6 2.1.1 4.2.3 6.3.1 4.1-.3 7.1-2.7 9.4-6 2.5-3.6 3.8-7.8 4.9-12 .5-2 .8-4 1.2-6 .2-.8.2-1.8 1.6-1.5.1.4.3.8.2 1.2-.8 10.3-1.6 20.6-2.4 31-2 .7-3.9.3-5.7.2-2.9-.2-5.7-.6-8.6-.8-7.8-.6-15.6-1.1-23.4-1.7-2.3-.2-4.6-.3-6.9-.5-.9-.1-1.8-.3-2.8-.5v-2.1c.3-.1.5-.3.7-.3.7-.1 1.4 0 2-.1 1.8-.1 3.1-1 3.7-2.7.5-1.7.9-3.5 1-5.2.2-2.1.1-4.2.1-6.4v-66.8c0-1.6-.1-3.2-.4-4.8-.7-3.1-2.1-4.2-5.3-4.4-.5 0-1-.1-1.4-.1-.2-.3-.3-.4-.3-.5v-1.7c.8-.2 1.6-.5 2.4-.6 4.8-.4 9.7-.8 14.5-1.2 5.2-.4 10.5-.9 15.7-1.4 4.3-.4 8.6-.7 12.9-1 .5 2 .6 27.3.1 30.2-.3 0-.6.1-1.2.2-.4-2.4-.7-4.7-1.2-7-.5-2.6-1.1-5.2-2-7.6-.7-1.8-1.8-3.4-3-5-1.9-2.4-4.5-3.6-7.6-3.4-2.2.1-4.4.1-6.6.2-1 0-2 .3-3 .5V157zm141.2-50.4c1.6-.8 2.2-2.3 2.5-3.9.3-1.5.5-3 .8-4.6.5 0 .9-.1 1.4-.1.1.8.2 1.4.2 2.1v37.3c0 .5.1 1.1-.1 1.5-.2.4-.6.6-1.3 1.2-.2-1.1-.5-1.8-.6-2.5-.9-6.5-2.1-12.9-4.6-19-1.3-3.2-3-6.1-5.5-8.5-4.5-4.5-10-3.9-14.1.5-3.3 3.5-5.3 7.7-6.8 12.2-2.1 6.4-3.1 13-3.7 19.7-.6 6.8-1.1 13.6-.9 20.4.4 11.1.9 22.2 3.5 33.1 1.1 4.6 2.6 9.2 5.4 13.1 1.4 1.9 3 3.5 5.2 4.4 4.7 2 9.7.8 13.3-3.5 1.7-2.1 3.2-4.4 4.6-6.7 1.1-1.9 1.9-4 2.9-6 .4-.9.8-1.8 1.5-3.4.2 1.1.3 1.6.3 2.1 0 .8-.1 1.7 0 2.5.5 3.9-.8 7.3-2.7 10.6-1.8 3.2-3.7 6.3-6.4 8.9-6.4 6-14.2 5.7-20.8 2-5.7-3.2-9.5-8.2-12.5-13.8-2.9-5.5-4.8-11.4-6.2-17.5-1.6-7.1-2.4-14.2-2.8-21.4-.2-4.3 0-8.5.2-12.7.9-13.3 3.7-26.1 9.7-38 2.5-5 5.7-9.5 10.1-13 1.3-1.1 2.8-2 4.3-2.8 4.2-2.1 8.5-2.3 12.8-.1 2.2 1.1 4.2 2.6 6.2 3.9 1.4.7 2.4 1.9 4.1 2zm-392.2 96.2v2.2c-2.3.2-4.5.4-6.8.6-2.3.1-4.6.1-6.9.2-2.3.1-4.6.3-6.9.4-2.3.1-4.6.2-7.1.3-.1-.7-.1-1.4-.2-2.2 1-.3 1.8-.5 2.6-.7 2.6-.6 4.1-2.2 4.5-4.9.2-1.6.4-3.2.4-4.8v-64c0-1.5-.2-3-.4-4.6-.4-2.9-1.7-4.3-4.6-5-.7-.2-1.5-.4-2.4-.6-.1-.6-.1-1.3-.2-1.9.4-.2.6-.4.8-.4 1.8.1 3.6.2 5.3.3 5.3.2 10.5.4 15.8.7 2.7.2 5.4.4 8.1 1 7 1.4 11.7 5.6 14.2 12.2 2.7 7.3 2.7 14.7-.1 21.9-3 7.9-9 11.8-17.4 12.3-2 .1-4 .1-6.1.2-.1.9-.2 1.6-.2 2.3v26.3c0 1.3.2 2.5.4 3.8.6 2.9 2 4 4.9 4.2.9 0 1.4.1 2.3.2zm-7.3-41.7c3.7.3 6.5-.6 8.6-3.4 1.2-1.7 2-3.5 2.5-5.5 1.3-5.8 1.4-11.6.4-17.4-.5-2.9-1.3-5.8-3.4-8.1-2-2.2-5.3-3.3-8-2.6-.1 12.1-.1 24.4-.1 37zm-138.1-51.3c16.2 1.1 32.4 2.3 48.5 3.4.7 1.9 1 19.2.6 24.9 0 .5-.3 1.1-.5 1.6-1.4-.1-1.3-1-1.5-1.8-.5-2.8-1-5.7-1.7-8.5-.7-2.9-1.9-5.6-3.8-8-1.4-1.7-3-2.9-5.4-3-1.7-.1-3.3-.3-5.2-.5-.1.9-.3 1.6-.3 2.2v79.3c0 1.4.2 2.7.4 4.1.5 3.3 2.2 4.9 5.5 5.2.4 0 .8.1 1.5.2.1.7.1 1.4.2 2.1-2.7.7-23.3 2.1-28.5 2 0-.7-.1-1.4-.1-2.1.3-.2.5-.4.8-.4l1.8-.3c2.1-.4 3.6-1.7 4.1-3.7.5-1.6.8-3.3.9-5 .2-2.2.1-4.4.1-6.6v-77.6c-2.7-.2-5.2-.6-7.7.1-2.1.6-3.5 2.1-4.5 3.9-2 3.8-3 7.9-3.7 12.1-.2 1.4-.4 2.8-.6 4.3-.4.1-.7.1-1 .1-.4-2-.5-25.3.1-28z"/><path class="st0" d="M135.2 161.8c0 4.2.2 8.5 0 12.7-.3 7.8-1 15.6-3 23.2-.9 3.4-2 6.7-3.9 9.7-1.2 2-2.8 3.7-5.1 4.5-2.8 1-5.4.5-7.6-1.5-1.7-1.6-2.9-3.6-3.7-5.7-1.8-4.6-2.9-9.4-3.6-14.3-2.2-14.4-1.8-29-1.4-43.5.3-8.4 1.2-16.8 4-24.8.7-2.1 1.8-4 2.7-6 .2-.4.4-.7.7-1.1 3.6-5 9.1-5.1 13-.4 2.6 3.1 3.8 6.8 4.8 10.6 1.6 5.8 2.4 11.8 2.7 17.8.3 6.3.5 12.6.8 18.8-.2-.1-.3-.1-.4 0zm90.4.2c0-3.8-.2-7.7 0-11.5.4-7.3 1-14.6 3.6-21.5.8-2.2 1.9-4.4 3.2-6.3 3.6-5.4 10-4.9 13.6-1.1 2.5 2.7 3.9 5.9 5 9.4 1.7 5.3 2.5 10.7 2.6 16.3.2 7.6.5 15.3.4 22.9-.1 7.5-.8 14.9-3 22.1-.9 3-2 6-3.8 8.6-2 2.8-4.6 4.5-8.2 4.3-2.7-.1-4.7-1.2-6.4-3.2-2.2-2.8-3.4-6.1-4.4-9.4-1.3-4.5-2-9.1-2.3-13.8-.3-5.6-.5-11.2-.8-16.8h.5zm69-.9V124c2.8-.7 6.1.4 8 2.6 2.1 2.3 2.9 5.2 3.4 8.1 1 5.8.9 11.6-.4 17.4-.4 2-1.2 3.9-2.5 5.5-2 2.8-4.8 3.8-8.5 3.5z"/></svg>